<?xml version="1.0" encoding="UTF-8"?>
<svg xmlns="http://www.w3.org/2000/svg" xmlns:xlink="http://www.w3.org/1999/xlink" width="200px" height="120px" viewBox="0 0 200 120" version="1.1">
<g id="surface1">
<path style=" stroke:none;fill-rule:nonzero;fill:rgb(0%,0%,0%);fill-opacity:1;" d="M 21.84375 50.074219 L 26.527344 50.074219 L 26.527344 55.140625 C 26.910156 54.15625 27.851562 52.960938 29.347656 51.554688 C 30.847656 50.128906 32.574219 49.417969 34.527344 49.417969 C 34.617188 49.417969 34.773438 49.425781 34.992188 49.445312 C 35.210938 49.460938 35.585938 49.5 36.117188 49.554688 L 36.117188 54.757812 C 35.824219 54.703125 35.550781 54.667969 35.292969 54.648438 C 35.054688 54.628906 34.792969 54.621094 34.5 54.621094 C 32.015625 54.621094 30.105469 55.425781 28.773438 57.03125 C 27.441406 58.621094 26.773438 60.457031 26.773438 62.539062 L 26.773438 79.414062 L 21.84375 79.414062 Z M 21.84375 50.074219 "/>
<path style=" stroke:none;fill-rule:nonzero;fill:rgb(0%,0%,0%);fill-opacity:1;" d="M 41.863281 48.820312 L 47.019531 48.820312 L 47.019531 78.855469 L 41.863281 78.855469 Z M 41.863281 37.464844 L 47.019531 37.464844 L 47.019531 43.214844 L 41.863281 43.214844 Z M 41.863281 37.464844 "/>
<path style=" stroke:none;fill-rule:nonzero;fill:rgb(0%,0%,0%);fill-opacity:1;" d="M 65.066406 48.144531 C 67.433594 48.144531 69.5 48.726562 71.265625 49.890625 C 72.222656 50.546875 73.199219 51.507812 74.195312 52.765625 L 74.195312 48.960938 L 78.875 48.960938 L 78.875 76.40625 C 78.875 80.238281 78.308594 83.261719 77.183594 85.476562 C 75.078125 89.574219 71.105469 91.621094 65.265625 91.621094 C 62.015625 91.621094 59.28125 90.886719 57.066406 89.421875 C 54.847656 87.976562 53.609375 85.703125 53.347656 82.605469 L 58.5 82.605469 C 58.746094 83.957031 59.234375 85 59.96875 85.730469 C 61.113281 86.859375 62.917969 87.421875 65.375 87.421875 C 69.265625 87.421875 71.808594 86.050781 73.011719 83.308594 C 73.726562 81.691406 74.054688 78.808594 74 74.660156 C 72.984375 76.199219 71.761719 77.34375 70.335938 78.097656 C 68.910156 78.847656 67.019531 79.222656 64.671875 79.222656 C 61.402344 79.222656 58.539062 78.066406 56.078125 75.757812 C 53.636719 73.429688 52.414062 69.585938 52.414062 64.234375 C 52.414062 59.179688 53.644531 55.234375 56.105469 52.398438 C 58.585938 49.5625 61.574219 48.144531 65.066406 48.144531 Z M 74.195312 63.640625 C 74.195312 59.902344 73.425781 57.132812 71.886719 55.328125 C 70.34375 53.527344 68.382812 52.625 65.996094 52.625 C 62.429688 52.625 59.984375 54.296875 58.671875 57.640625 C 57.976562 59.425781 57.628906 61.761719 57.628906 64.65625 C 57.628906 68.054688 58.3125 70.648438 59.683594 72.433594 C 61.074219 74.199219 62.933594 75.082031 65.265625 75.082031 C 68.910156 75.082031 71.472656 73.4375 72.957031 70.148438 C 73.78125 68.289062 74.195312 66.121094 74.195312 63.640625 Z M 74.195312 63.640625 "/>
<path style=" stroke:none;fill-rule:nonzero;fill:rgb(0%,0%,0%);fill-opacity:1;" d="M 158.117188 37.464844 L 176.742188 37.464844 C 180.425781 37.464844 183.390625 38.507812 185.644531 40.59375 C 187.902344 42.660156 189.027344 45.570312 189.027344 49.328125 C 189.027344 52.558594 188.023438 55.375 186.011719 57.78125 C 184.003906 60.167969 180.914062 61.359375 176.742188 61.359375 L 163.726562 61.359375 L 163.726562 78.855469 L 158.117188 78.855469 Z M 183.363281 49.355469 C 183.363281 46.3125 182.238281 44.246094 179.984375 43.15625 C 178.742188 42.574219 177.042969 42.285156 174.882812 42.285156 L 163.726562 42.285156 L 163.726562 56.625 L 174.882812 56.625 C 177.398438 56.625 179.4375 56.089844 180.996094 55.019531 C 182.574219 53.949219 183.363281 52.0625 183.363281 49.355469 Z M 183.363281 49.355469 "/>
<path style=" stroke:none;fill-rule:nonzero;fill:rgb(0%,100%,52.156866%);fill-opacity:1;" d="M 124.339844 19.578125 C 123.308594 18.535156 121.628906 18.523438 120.582031 19.554688 L 103.558594 36.351562 C 102.515625 37.382812 102.503906 39.066406 103.535156 40.109375 C 104.5625 41.15625 106.246094 41.167969 107.292969 40.136719 L 122.425781 25.203125 L 137.355469 40.335938 C 138.386719 41.378906 140.070312 41.390625 141.113281 40.359375 C 142.160156 39.332031 142.171875 37.648438 141.140625 36.601562 Z M 124.976562 40.882812 L 125.105469 21.464844 L 119.792969 21.429688 L 119.664062 40.84375 Z M 124.976562 40.882812 "/>
<path style=" stroke:none;fill-rule:evenodd;fill:rgb(0%,100%,52.156866%);fill-opacity:1;" d="M 145.085938 52.976562 L 145.085938 64.113281 C 145.085938 66.9375 144.648438 69.1875 143.777344 70.855469 C 142.160156 73.933594 139.105469 75.46875 134.605469 75.46875 C 130.855469 75.46875 128.191406 74.046875 126.609375 71.203125 C 125.542969 69.320312 125.007812 66.957031 125.007812 64.113281 L 125.007812 39.902344 L 119.621094 39.902344 L 119.621094 61.898438 C 119.621094 66.714844 120.269531 70.421875 121.570312 73.015625 C 123.933594 77.746094 128.421875 80.109375 135.035156 80.109375 C 141.644531 80.109375 146.144531 77.746094 148.523438 73.015625 C 149.820312 70.421875 150.46875 66.714844 150.46875 61.898438 L 150.46875 52.976562 Z M 145.085938 52.976562 "/>
<path style=" stroke:none;fill-rule:nonzero;fill:rgb(0%,100%,52.156866%);fill-opacity:1;" d="M 190.808594 73.921875 C 190.808594 71.125 188.542969 68.859375 185.746094 68.859375 C 182.949219 68.859375 180.683594 71.125 180.683594 73.921875 C 180.683594 76.714844 182.949219 78.980469 185.746094 78.980469 C 188.542969 78.980469 190.808594 76.714844 190.808594 73.921875 Z M 190.808594 73.921875 "/>
<path style=" stroke:none;fill-rule:nonzero;fill:rgb(0%,0%,0%);fill-opacity:1;" d="M 99.058594 48.003906 C 101.199219 48.003906 103.277344 48.511719 105.285156 49.523438 C 107.296875 50.519531 108.828125 51.816406 109.878906 53.414062 C 110.894531 54.933594 111.570312 56.710938 111.90625 58.738281 C 112.207031 60.128906 112.359375 62.34375 112.359375 65.386719 L 90.238281 65.386719 C 90.332031 68.449219 91.058594 70.910156 92.410156 72.769531 C 93.761719 74.613281 95.855469 75.53125 98.691406 75.53125 C 101.339844 75.53125 103.453125 74.660156 105.03125 72.910156 C 105.933594 71.898438 106.574219 70.722656 106.949219 69.390625 L 111.933594 69.390625 C 111.804688 70.496094 111.363281 71.738281 110.609375 73.109375 C 109.878906 74.460938 109.050781 75.570312 108.132812 76.433594 C 106.589844 77.9375 104.683594 78.949219 102.410156 79.476562 C 101.191406 79.777344 99.808594 79.925781 98.269531 79.925781 C 94.511719 79.925781 91.328125 78.566406 88.71875 75.839844 C 86.105469 73.097656 84.800781 69.265625 84.800781 64.347656 C 84.800781 59.5 86.117188 55.5625 88.746094 52.539062 C 91.375 49.515625 94.8125 48.003906 99.058594 48.003906 Z M 107.144531 61.359375 C 106.9375 59.160156 106.460938 57.40625 105.707031 56.089844 C 104.316406 53.648438 102 52.425781 98.75 52.425781 C 96.417969 52.425781 94.464844 53.273438 92.886719 54.964844 C 91.308594 56.636719 90.472656 58.765625 90.378906 61.359375 Z M 107.144531 61.359375 "/>
</g>
</svg>
