<?xml version="1.0" encoding="UTF-8"?>
<svg version="1.1" xmlns="http://www.w3.org/2000/svg" width="320" height="109">
<path d="M0 0 C3.22129935 0.57937039 6.25627303 0.58382237 9.52734375 0.55078125 C12.59015625 0.51984375 12.59015625 0.51984375 15.71484375 0.48828125 C16.04484375 7.74828125 16.37484375 15.00828125 16.71484375 22.48828125 C18.03484375 22.81828125 19.35484375 23.14828125 20.71484375 23.48828125 C21.04484375 15.89828125 21.37484375 8.30828125 21.71484375 0.48828125 C26.00484375 0.48828125 30.29484375 0.48828125 34.71484375 0.48828125 C35.20984375 1.97328125 35.20984375 1.97328125 35.71484375 3.48828125 C36.45734375 3.01390625 37.19984375 2.53953125 37.96484375 2.05078125 C43.25152283 -0.95301368 49.01116478 -1.52841494 54.90625 0.08984375 C58.18150783 1.28413666 60.79281389 2.54026134 63.71484375 4.48828125 C63.71484375 3.16828125 63.71484375 1.84828125 63.71484375 0.48828125 C71.63484375 0.48828125 79.55484375 0.48828125 87.71484375 0.48828125 C88.20984375 1.97328125 88.20984375 1.97328125 88.71484375 3.48828125 C89.29234375 3.01390625 89.86984375 2.53953125 90.46484375 2.05078125 C94.2805636 -0.5990242 97.6513452 -0.6277084 102.21777344 -0.53344727 C103.86903229 -0.50330284 103.86903229 -0.50330284 105.5536499 -0.47254944 C107.32726898 -0.43199684 107.32726898 -0.43199684 109.13671875 -0.390625 C110.35184143 -0.36701401 111.56696411 -0.34340302 112.81890869 -0.31907654 C116.70100726 -0.24248695 120.58290401 -0.15844182 124.46484375 -0.07421875 C127.09634428 -0.02099339 129.72785467 0.03174698 132.359375 0.08398438 C138.81132287 0.21312193 145.26312076 0.34838151 151.71484375 0.48828125 C152.19080464 1.74843357 152.66589388 3.00891513 153.140625 4.26953125 C153.40528564 4.97142578 153.66994629 5.67332031 153.94262695 6.39648438 C154.9307821 9.07321952 155.8329899 11.77488479 156.71484375 14.48828125 C159.27884178 9.64585381 159.27884178 9.64585381 161.71484375 0.48828125 C170.29484375 0.48828125 178.87484375 0.48828125 187.71484375 0.48828125 C199.71484375 31.07651654 199.71484375 31.07651654 199.71484375 34.48828125 C195.09484375 34.48828125 190.47484375 34.48828125 185.71484375 34.48828125 C185.71484375 33.16828125 185.71484375 31.84828125 185.71484375 30.48828125 C182.41484375 30.48828125 179.11484375 30.48828125 175.71484375 30.48828125 C175.71484375 31.80828125 175.71484375 33.12828125 175.71484375 34.48828125 C167.79484375 34.48828125 159.87484375 34.48828125 151.71484375 34.48828125 C148.50142563 28.06144501 146.06504327 22.20313701 143.71484375 15.48828125 C143.38484375 21.75828125 143.05484375 28.02828125 142.71484375 34.48828125 C138.42484375 34.48828125 134.13484375 34.48828125 129.71484375 34.48828125 C129.71484375 26.89828125 129.71484375 19.30828125 129.71484375 11.48828125 C128.72484375 11.48828125 127.73484375 11.48828125 126.71484375 11.48828125 C126.71484375 19.07828125 126.71484375 26.66828125 126.71484375 34.48828125 C122.42484375 34.48828125 118.13484375 34.48828125 113.71484375 34.48828125 C113.71484375 26.89828125 113.71484375 19.30828125 113.71484375 11.48828125 C111.07484375 11.48828125 108.43484375 11.48828125 105.71484375 11.48828125 C102.9520413 11.01075984 100.41905575 10.26091325 97.71484375 9.48828125 C98.51823684 11.66523063 98.51823684 11.66523063 100.640625 12.19921875 C101.42824219 12.41835938 102.21585937 12.6375 103.02734375 12.86328125 C109.60313136 14.99936512 109.60313136 14.99936512 111.71484375 18.48828125 C112.47468582 22.31671632 112.58116823 25.80888995 110.76171875 29.3359375 C108.2044611 32.62962061 105.75454763 34.59056928 101.71484375 35.48828125 C93.48277987 35.98435025 93.48277987 35.98435025 89.91723633 34.98388672 C87.2492344 34.38350495 84.80886121 34.37607903 82.07421875 34.390625 C81.00429687 34.39384766 79.934375 34.39707031 78.83203125 34.40039062 C77.72085938 34.40876953 76.6096875 34.41714844 75.46484375 34.42578125 C74.33820313 34.43029297 73.2115625 34.43480469 72.05078125 34.43945312 C69.27208158 34.45122728 66.49348966 34.46767285 63.71484375 34.48828125 C63.21984375 32.50828125 63.21984375 32.50828125 62.71484375 30.48828125 C61.78671875 31.12765625 60.85859375 31.76703125 59.90234375 32.42578125 C54.59486812 35.86003019 49.89288131 36.17371441 43.71484375 35.48828125 C39.65939868 34.05254483 36.27952706 31.86473679 32.71484375 29.48828125 C31.32265625 30.69484375 31.32265625 30.69484375 29.90234375 31.92578125 C25.68300782 35.58253906 21.78311041 35.81292119 16.3671875 35.7890625 C12.18942568 35.3152957 9.30898478 33.6181426 5.71484375 31.48828125 C5.71484375 30.82828125 5.71484375 30.16828125 5.71484375 29.48828125 C5.05484375 29.48828125 4.39484375 29.48828125 3.71484375 29.48828125 C3.71484375 30.14828125 3.71484375 30.80828125 3.71484375 31.48828125 C-2.41399286 35.12018443 -7.15600613 36.49352608 -14.28515625 35.48828125 C-16.82333781 34.69651338 -18.91431523 33.72524178 -21.28515625 32.48828125 C-20.62515625 29.51828125 -19.96515625 26.54828125 -19.28515625 23.48828125 C-15.28515625 23.48828125 -15.28515625 23.48828125 -13.28515625 24.48828125 C-11.28555613 24.52827325 -9.28468383 24.53174924 -7.28515625 24.48828125 C-9.31154441 23.46825665 -11.34131952 22.4616063 -13.390625 21.48828125 C-14.07769531 21.15828125 -14.76476562 20.82828125 -15.47265625 20.48828125 C-16.16746094 20.15828125 -16.86226563 19.82828125 -17.578125 19.48828125 C-19.28515625 18.48828125 -19.28515625 18.48828125 -20.28515625 16.48828125 C-20.81470042 12.06962578 -20.87228074 8.56859032 -18.72265625 4.61328125 C-13.14366124 -0.25045799 -7.2005185 -1.6124238 0 0 Z M-7.28515625 9.48828125 C-7.28515625 10.47828125 -7.28515625 11.46828125 -7.28515625 12.48828125 C-3.98515625 13.14828125 -0.68515625 13.80828125 2.71484375 14.48828125 C2.38484375 13.16828125 2.05484375 11.84828125 1.71484375 10.48828125 C-1.25515625 10.15828125 -4.22515625 9.82828125 -7.28515625 9.48828125 Z M60.21484375 10.55078125 C56.85319814 11.45122204 55.40530868 11.44006129 52.08984375 10.92578125 C48.57510291 10.43916136 48.57510291 10.43916136 45.21484375 11.55078125 C43.12848829 14.24565705 42.78280597 16.09017044 42.71484375 19.48828125 C43.68962182 22.36330378 43.68962182 22.36330378 45.71484375 24.48828125 C48.2043689 25.55375023 48.2043689 25.55375023 50.71484375 25.48828125 C51.37484375 24.82828125 52.03484375 24.16828125 52.71484375 23.48828125 C51.06484375 23.48828125 49.41484375 23.48828125 47.71484375 23.48828125 C47.71484375 20.51828125 47.71484375 17.54828125 47.71484375 14.48828125 C52.99484375 14.48828125 58.27484375 14.48828125 63.71484375 14.48828125 C63.71484375 12.83828125 63.71484375 11.18828125 63.71484375 9.48828125 C62.41549653 9.42309114 62.41549653 9.42309114 60.21484375 10.55078125 Z M76.71484375 10.48828125 C76.71484375 11.14828125 76.71484375 11.80828125 76.71484375 12.48828125 C79.35484375 12.48828125 81.99484375 12.48828125 84.71484375 12.48828125 C84.71484375 11.82828125 84.71484375 11.16828125 84.71484375 10.48828125 C82.07484375 10.48828125 79.43484375 10.48828125 76.71484375 10.48828125 Z M180.71484375 15.48828125 C180.05484375 17.46828125 179.39484375 19.44828125 178.71484375 21.48828125 C180.03484375 21.48828125 181.35484375 21.48828125 182.71484375 21.48828125 C182.38484375 19.50828125 182.05484375 17.52828125 181.71484375 15.48828125 C181.38484375 15.48828125 181.05484375 15.48828125 180.71484375 15.48828125 Z M86.71484375 18.48828125 C86.71484375 19.80828125 86.71484375 21.12828125 86.71484375 22.48828125 C90.9443437 24.90513837 93.83820366 25.83661269 98.71484375 25.48828125 C98.71484375 24.49828125 98.71484375 23.50828125 98.71484375 22.48828125 C98.01617187 22.28332031 97.3175 22.07835937 96.59765625 21.8671875 C95.68757813 21.59777344 94.7775 21.32835937 93.83984375 21.05078125 C92.93492187 20.78394531 92.03 20.51710938 91.09765625 20.2421875 C88.71484375 19.48828125 88.71484375 19.48828125 86.71484375 18.48828125 Z M76.71484375 22.48828125 C76.71484375 23.14828125 76.71484375 23.80828125 76.71484375 24.48828125 C80.01484375 24.48828125 83.31484375 24.48828125 86.71484375 24.48828125 C86.71484375 23.82828125 86.71484375 23.16828125 86.71484375 22.48828125 C83.41484375 22.48828125 80.11484375 22.48828125 76.71484375 22.48828125 Z " fill="#FEFEFE" transform="translate(111.28515625,44.51171875)"/>
<path d="M0 0 C2.61137736 0.89108194 4.85416023 2.09177735 7.26025391 3.44506836 C8.26386963 4.00742188 9.26748535 4.56977539 10.30151367 5.14916992 C11.37328857 5.75728516 12.44506348 6.36540039 13.54931641 6.99194336 C14.64880615 7.61294922 15.7482959 8.23395508 16.88110352 8.8737793 C20.31717504 10.82120663 23.74693799 12.77926074 27.17431641 14.74194336 C28.27179199 15.3697168 29.36926758 15.99749023 30.5 16.64428711 C33.58529387 18.41614202 36.66269509 20.20078728 39.73681641 21.99194336 C40.6879834 22.54011719 41.63915039 23.08829102 42.61914062 23.65307617 C43.4842627 24.16193359 44.34938477 24.67079102 45.24072266 25.19506836 C46.00328369 25.64011719 46.76584473 26.08516602 47.55151367 26.54370117 C48.08703857 26.93912109 48.62256348 27.33454102 49.17431641 27.74194336 C49.17431641 28.40194336 49.17431641 29.06194336 49.17431641 29.74194336 C48.54267578 30.09272949 47.91103516 30.44351563 47.26025391 30.80493164 C44.23017426 32.48970395 41.20225942 34.17833411 38.17431641 35.86694336 C37.05831055 36.48698242 35.94230469 37.10702148 34.79248047 37.74584961 C28.91686402 41.02603088 23.09676124 44.3637845 17.34619141 47.85913086 C16.26724609 48.50994629 15.18830078 49.16076172 14.07666016 49.83129883 C12.00228236 51.08858512 9.93681698 52.36071506 7.88134766 53.64868164 C6.94162109 54.21570801 6.00189453 54.78273437 5.03369141 55.36694336 C4.21352539 55.87483398 3.39335938 56.38272461 2.54833984 56.90600586 C0.17431641 57.74194336 0.17431641 57.74194336 -2.22045898 57.11914062 C-5.30272834 55.48976368 -8.3474017 53.8225958 -11.36865234 52.08178711 C-11.97832352 51.73185196 -12.58799469 51.38191681 -13.21614075 51.02137756 C-15.15026462 49.9104546 -17.0817913 48.79510729 -19.01318359 47.67944336 C-20.9558209 46.56115914 -22.8989775 45.44378359 -24.84236145 44.32679749 C-26.59835365 43.31690561 -28.35304266 42.30474875 -30.10766602 41.29248047 C-31.66052397 40.40662752 -33.22665807 39.54145612 -34.82568359 38.74194336 C-34.58011719 39.9678418 -34.58011719 39.9678418 -34.32958984 41.21850586 C-33.75593753 45.22962512 -33.71566755 49.07442457 -33.76318359 53.11694336 C-33.76769531 53.85299805 -33.77220703 54.58905273 -33.77685547 55.34741211 C-33.78853218 57.14562494 -33.80646348 58.94379533 -33.82568359 60.74194336 C-36.13568359 60.74194336 -38.44568359 60.74194336 -40.82568359 60.74194336 C-40.82568359 52.16194336 -40.82568359 43.58194336 -40.82568359 34.74194336 C-43.79568359 33.09194336 -46.76568359 31.44194336 -49.82568359 29.74194336 C-48.54771499 25.90803756 -47.35117691 25.63557521 -43.85693359 23.73803711 C-42.81827148 23.16674072 -41.77960937 22.59544434 -40.70947266 22.00683594 C-39.03449707 21.10227661 -39.03449707 21.10227661 -37.32568359 20.17944336 C-35.03842674 18.92308351 -32.75197122 17.66526372 -30.46630859 16.40600586 C-29.33773438 15.78628906 -28.20916016 15.16657227 -27.04638672 14.52807617 C-22.68062287 12.10691727 -18.36967701 9.60023742 -14.07568359 7.05444336 C-13.40472656 6.65733154 -12.73376953 6.26021973 -12.04248047 5.85107422 C-9.35781368 4.25783414 -6.70764673 2.66194439 -4.12255859 0.90991211 C-1.82568359 -0.25805664 -1.82568359 -0.25805664 0 0 Z " fill="#FEFEFE" transform="translate(52.82568359375,2.258056640625)"/>
<path d="M0 0 C3.5156635 1.4062654 6.49712396 2.74268824 9.74609375 4.58203125 C11.11109009 5.35293091 11.11109009 5.35293091 12.50366211 6.1394043 C13.95591187 6.96758667 13.95591187 6.96758667 15.4375 7.8125 C16.4385376 8.38202393 17.4395752 8.95154785 18.47094727 9.53833008 C21.65079163 11.35286248 24.82605324 13.17517321 28 15 C29.59714844 15.91604004 29.59714844 15.91604004 31.2265625 16.85058594 C34.30252362 18.62001934 37.37124274 20.40131355 40.4375 22.1875 C41.39648193 22.73962158 42.35546387 23.29174316 43.34350586 23.8605957 C44.21885986 24.37452881 45.09421387 24.88846191 45.99609375 25.41796875 C46.77138428 25.86938232 47.5466748 26.3207959 48.34545898 26.78588867 C48.89145752 27.18654541 49.43745605 27.58720215 50 28 C50 28.66 50 29.32 50 30 C48.20442708 31.02604167 46.40885417 32.05208333 44.61328125 33.078125 C43.76533997 33.56270172 43.76533997 33.56270172 42.90026855 34.05706787 C39.76342091 35.84965899 36.6263869 37.64192263 33.48901367 39.43359375 C27.48884119 42.86055425 21.49044763 46.29042851 15.5 49.734375 C14.53280029 50.28963867 13.56560059 50.84490234 12.5690918 51.41699219 C10.75705919 52.4575749 8.94599361 53.49984369 7.13598633 54.54394531 C6.33443115 55.00381836 5.53287598 55.46369141 4.70703125 55.9375 C4.0106958 56.33839844 3.31436035 56.73929688 2.59692383 57.15234375 C1 58 1 58 0 58 C0 38.86 0 19.72 0 0 Z " fill="#FEFEFE" transform="translate(23,47)"/>
<path d="M0 0 C0 19.14 0 38.28 0 58 C-4.34405166 56.55198278 -7.20994125 55.46925664 -10.9609375 53.1796875 C-11.84394531 52.64472656 -12.72695312 52.10976562 -13.63671875 51.55859375 C-14.54035156 51.00300781 -15.44398437 50.44742188 -16.375 49.875 C-17.30183594 49.31167969 -18.22867188 48.74835938 -19.18359375 48.16796875 C-21.45903155 46.78393957 -23.7309763 45.39451078 -26 44 C-24.80010777 40.4003233 -24.01596192 40.13132335 -20.81640625 38.30078125 C-19.97142578 37.81416016 -19.12644531 37.32753906 -18.25585938 36.82617188 C-17.36705078 36.32666016 -16.47824219 35.82714844 -15.5625 35.3125 C-14.67755859 34.80138672 -13.79261719 34.29027344 -12.88085938 33.76367188 C-6.2831275 30 -6.2831275 30 -4 30 C-6.25465767 27.54352682 -8.55845486 25.94987474 -11.44921875 24.30078125 C-12.29677734 23.81416016 -13.14433594 23.32753906 -14.01757812 22.82617188 C-15.33918945 22.0769043 -15.33918945 22.0769043 -16.6875 21.3125 C-17.58017578 20.80138672 -18.47285156 20.29027344 -19.39257812 19.76367188 C-21.59264265 18.50481142 -23.79514447 17.25044404 -26 16 C-24.74321144 12.22963433 -23.56408184 11.84891339 -20.1953125 9.86328125 C-19.21949219 9.28642578 -18.24367188 8.70957031 -17.23828125 8.11523438 C-16.21089844 7.52033203 -15.18351562 6.92542969 -14.125 6.3125 C-12.59552734 5.40274414 -12.59552734 5.40274414 -11.03515625 4.47460938 C-3.39459716 0 -3.39459716 0 0 0 Z " fill="#FEFEFE" transform="translate(83,47)"/>
<path d="M0 0 C2.33333333 0 4.66666667 0 7 0 C7 2.64 7 5.28 7 8 C5.68 7.34 4.36 6.68 3 6 C2.67 6.66 2.34 7.32 2 8 C1.34 8 0.68 8 0 8 C0 5.36 0 2.72 0 0 Z " fill="#FEFEFE" transform="translate(173,86)"/>
<path d="M0 0 C2.625 0.9375 2.625 0.9375 5 2 C4.67 3.65 4.34 5.3 4 7 C2.1875 7.625 2.1875 7.625 0 8 C-0.99 7.34 -1.98 6.68 -3 6 C-2.625 3.5625 -2.625 3.5625 -2 1 C-1.34 0.67 -0.68 0.34 0 0 Z M0 3 C0 3.66 0 4.32 0 5 C0.66 5 1.32 5 2 5 C2 4.34 2 3.68 2 3 C1.34 3 0.68 3 0 3 Z " fill="#FEFEFE" transform="translate(250,86)"/>
<path d="M0 0 C1.98 0.99 1.98 0.99 4 2 C4.33 1.34 4.66 0.68 5 0 C5.66 0 6.32 0 7 0 C7 2.64 7 5.28 7 8 C5.68 7.34 4.36 6.68 3 6 C2.67 6.66 2.34 7.32 2 8 C1.34 8 0.68 8 0 8 C0 5.36 0 2.72 0 0 Z " fill="#FDFDFD" transform="translate(225,86)"/>
<path d="M0 0 C0 1.98 0 3.96 0 6 C-1.8125 6.625 -1.8125 6.625 -4 7 C-4.99 6.34 -5.98 5.68 -7 5 C-6.625 2.5625 -6.625 2.5625 -6 0 C-3.50907189 -1.24546405 -2.58919267 -0.7767578 0 0 Z M-5 2 C-4 4 -4 4 -4 4 Z " fill="#FEFEFE" transform="translate(263,87)"/>
<path d="M0 0 C1.66611905 -0.042721 3.33382885 -0.04063832 5 0 C6 1 6 1 6.0625 4.5625 C6.041875 5.696875 6.02125 6.83125 6 8 C4.02 8 2.04 8 0 8 C0 5.36 0 2.72 0 0 Z " fill="#FEFEFE" transform="translate(218,86)"/>
<path d="M0 0 C1.67542976 0.28604898 3.34385343 0.61781233 5 1 C5.6875 2.8125 5.6875 2.8125 6 5 C4.5625 6.75 4.5625 6.75 3 8 C0.525 7.01 0.525 7.01 -2 6 C-1.125 1.125 -1.125 1.125 0 0 Z M0 3 C0 3.66 0 4.32 0 5 C0.99 5 1.98 5 3 5 C3 4.34 3 3.68 3 3 C2.01 3 1.02 3 0 3 Z " fill="#FEFEFE" transform="translate(166,86)"/>
<path d="M0 0 C1.65 0 3.3 0 5 0 C5 2.64 5 5.28 5 8 C3.35 8 1.7 8 0 8 C0 5.36 0 2.72 0 0 Z " fill="#FEFEFE" transform="translate(269,86)"/>
<path d="M0 0 C2.125 0.375 2.125 0.375 4 1 C4.625 3.375 4.625 3.375 5 6 C4.34 6.66 3.68 7.32 3 8 C0.875 7.625 0.875 7.625 -1 7 C-1.625 4.625 -1.625 4.625 -2 2 C-1.34 1.34 -0.68 0.68 0 0 Z M0 3 C0 3.66 0 4.32 0 5 C0.99 5 1.98 5 3 5 C3 4.34 3 3.68 3 3 C2.01 3 1.02 3 0 3 Z " fill="#FDFDFD" transform="translate(236,86)"/>
<path d="M0 0 C2.475 0.495 2.475 0.495 5 1 C5.33 2.65 5.66 4.3 6 6 C3 8 3 8 0 8 C0 5.36 0 2.72 0 0 Z M2 3 C3 5 3 5 3 5 Z " fill="#FEFEFE" transform="translate(125,86)"/>
<path d="M0 0 C2 0 4 0 6 0 C6 2.31 6 4.62 6 7 C4.125 7.625 4.125 7.625 2 8 C0 6 0 6 -0.125 2.875 C-0.08375 1.92625 -0.0425 0.9775 0 0 Z " fill="#FEFEFE" transform="translate(132,86)"/>
<path d="M0 0 C0 0.66 0 1.32 0 2 C-1.32 2 -2.64 2 -4 2 C-4 2.66 -4 3.32 -4 4 C-2.68 4 -1.36 4 0 4 C0 4.66 0 5.32 0 6 C-3.75 7.125 -3.75 7.125 -6 6 C-6 4.02 -6 2.04 -6 0 C-3.50907189 -1.24546405 -2.58919267 -0.7767578 0 0 Z " fill="#FEFEFE" transform="translate(146,87)"/>
<path d="M0 0 C1.32 0 2.64 0 4 0 C4 2.64 4 5.28 4 8 C2.68 8 1.36 8 0 8 C0 5.36 0 2.72 0 0 Z " fill="#FBFBFB" transform="translate(119,86)"/>
<path d="M0 0 C2.125 0.375 2.125 0.375 4 1 C4 1.66 4 2.32 4 3 C2.68 3 1.36 3 0 3 C0 3.66 0 4.32 0 5 C1.32 5 2.64 5 4 5 C3.67 5.99 3.34 6.98 3 8 C1.68 7.67 0.36 7.34 -1 7 C-1.625 4.625 -1.625 4.625 -2 2 C-1.34 1.34 -0.68 0.68 0 0 Z " fill="#FEFEFE" transform="translate(212,86)"/>
<path d="M0 0 C1.32 0 2.64 0 4 0 C4 2.64 4 5.28 4 8 C2.68 8 1.36 8 0 8 C0 5.36 0 2.72 0 0 Z " fill="#FEFEFE" transform="translate(204,86)"/>
<path d="M0 0 C0.66 0 1.32 0 2 0 C5 5.75 5 5.75 5 8 C2.525 7.01 2.525 7.01 0 6 C0 6.66 0 7.32 0 8 C-0.66 8 -1.32 8 -2 8 C-1.47731534 5.23723823 -0.89130413 2.6739124 0 0 Z " fill="#FEFEFE" transform="translate(183,86)"/>
<path d="M0 0 C0.99 0.33 1.98 0.66 3 1 C3 2.98 3 4.96 3 7 C2.01 7.33 1.02 7.66 0 8 C-0.66 7.67 -1.32 7.34 -2 7 C-2 5.02 -2 3.04 -2 1 C-1.34 0.67 -0.68 0.34 0 0 Z " fill="#FDFDFD" transform="translate(277,86)"/>
<path d="M0 0 C0.66 0 1.32 0 2 0 C3.42944945 2.35438733 4.08661261 3.48032433 3.625 6.25 C3.41875 6.8275 3.2125 7.405 3 8 C2.01 7.34 1.02 6.68 0 6 C0 6.66 0 7.32 0 8 C-0.66 8 -1.32 8 -2 8 C-1.47731534 5.23723823 -0.89130413 2.6739124 0 0 Z " fill="#FEFEFE" transform="translate(149,86)"/>
<path d="M0 0 C1.65 0 3.3 0 5 0 C4.67 2.31 4.34 4.62 4 7 C3.01 7 2.02 7 1 7 C0.67 4.69 0.34 2.38 0 0 Z " fill="#FEFEFE" transform="translate(154,86)"/>
<path d="M0 0 C1.65 0 3.3 0 5 0 C4.34 2.64 3.68 5.28 3 8 C2.34 8 1.68 8 1 8 C0.67 5.36 0.34 2.72 0 0 Z " fill="#FAFAFA" transform="translate(198,86)"/>
<path d="M0 0 C0.66 0 1.32 0 2 0 C2 1.65 2 3.3 2 5 C2.66 5 3.32 5 4 5 C4 5.99 4 6.98 4 8 C2.68 8 1.36 8 0 8 C0 5.36 0 2.72 0 0 Z " fill="#FEFEFE" transform="translate(189,86)"/>
<path d="M0 0 C0.66 0 1.32 0 2 0 C2.33 2.64 2.66 5.28 3 8 C2.01 8 1.02 8 0 8 C0 5.36 0 2.72 0 0 Z " fill="#FEFEFE" transform="translate(243,86)"/>
<path d="M0 0 C0.66 0 1.32 0 2 0 C2 2.64 2 5.28 2 8 C1.34 8 0.68 8 0 8 C0 5.36 0 2.72 0 0 Z " fill="#FEFEFE" transform="translate(265,86)"/>
<path d="M0 0 C0.66 0 1.32 0 2 0 C2 2.64 2 5.28 2 8 C1.34 8 0.68 8 0 8 C0 5.36 0 2.72 0 0 Z " fill="#FDFDFD" transform="translate(160,86)"/>
<path d="M0 0 C0.99 0 1.98 0 3 0 C3 1.32 3 2.64 3 4 C1.68 3.67 0.36 3.34 -1 3 C-0.67 2.01 -0.34 1.02 0 0 Z " fill="#FEFEFE" transform="translate(111,88)"/>
<path d="M0 0 C0.99 0.33 1.98 0.66 3 1 C2.67 1.99 2.34 2.98 2 4 C1.01 3.67 0.02 3.34 -1 3 C-0.67 2.01 -0.34 1.02 0 0 Z " fill="#FEFEFE" transform="translate(285,88)"/>
<path d="" fill="#FFFFFF" transform="translate(0,0)"/>
<path d="" fill="#FFFFFF" transform="translate(0,0)"/>
<path d="" fill="#FFFFFF" transform="translate(0,0)"/>
<path d="" fill="#FFFFFF" transform="translate(0,0)"/>
<path d="" fill="#FFFFFF" transform="translate(0,0)"/>
<path d="" fill="#FFFFFF" transform="translate(0,0)"/>
<path d="" fill="#FFFFFF" transform="translate(0,0)"/>
<path d="" fill="#FFFFFF" transform="translate(0,0)"/>
<path d="" fill="#FFFFFF" transform="translate(0,0)"/>
<path d="" fill="#FFFFFF" transform="translate(0,0)"/>
<path d="" fill="#FFFFFF" transform="translate(0,0)"/>
<path d="" fill="#FFFFFF" transform="translate(0,0)"/>
<path d="" fill="#FFFFFF" transform="translate(0,0)"/>
<path d="" fill="#FFFFFF" transform="translate(0,0)"/>
<path d="" fill="#FFFFFF" transform="translate(0,0)"/>
<path d="" fill="#FFFFFF" transform="translate(0,0)"/>
<path d="" fill="#FFFFFF" transform="translate(0,0)"/>
<path d="" fill="#FFFFFF" transform="translate(0,0)"/>
<path d="" fill="#FFFFFF" transform="translate(0,0)"/>
<path d="" fill="#FFFFFF" transform="translate(0,0)"/>
<path d="" fill="#FFFFFF" transform="translate(0,0)"/>
<path d="" fill="#FFFFFF" transform="translate(0,0)"/>
</svg>
