<svg width="100" height="60" viewBox="0 0 84 55" fill="none" xmlns="http://www.w3.org/2000/svg">
<path d="M6.17828 22.9507H8.32524V25.2734C8.50102 24.8214 8.93208 24.2732 9.61844 23.6287C10.3048 22.9758 11.0958 22.6494 11.9914 22.6494C12.0333 22.6494 12.1044 22.6536 12.2048 22.6619C12.3053 22.6703 12.4769 22.687 12.7196 22.7121V25.0977C12.5857 25.0725 12.4601 25.0558 12.343 25.0474C12.2341 25.0391 12.1128 25.0349 11.9788 25.0349C10.8405 25.0349 9.96581 25.4032 9.35478 26.1397C8.74375 26.868 8.43824 27.7092 8.43824 28.6634V36.3975H6.17828V22.9507Z" fill="black"/>
<path d="M15.3539 22.3762H17.7172V36.1426H15.3539V22.3762ZM15.3539 17.1718H17.7172V19.8063H15.3539V17.1718Z" fill="black"/>
<path d="M25.989 22.0662C27.0738 22.0662 28.0208 22.3331 28.8301 22.8669C29.2692 23.1682 29.7169 23.6073 30.1732 24.1842V22.4408H32.3169V35.0191C32.3169 36.7754 32.0586 38.1615 31.5421 39.1774C30.5778 41.0542 28.7569 41.9926 26.0794 41.9926C24.59 41.9926 23.3373 41.6569 22.3214 40.9854C21.3055 40.3224 20.7373 39.2807 20.6168 37.8601H22.98C23.092 38.48 23.3158 38.9578 23.6516 39.2936C24.1767 39.8102 25.0032 40.0685 26.1311 40.0685C27.9132 40.0685 29.0798 39.44 29.6308 38.183C29.9579 37.4426 30.1086 36.1211 30.0828 34.2184C29.6179 34.9244 29.0583 35.4495 28.4039 35.7939C27.7496 36.1383 26.8844 36.3105 25.8082 36.3105C24.3102 36.3105 22.9973 35.781 21.8694 34.722C20.7502 33.6545 20.1906 31.8939 20.1906 29.4402C20.1906 27.1243 20.7545 25.3163 21.8823 24.0163C23.0188 22.7163 24.3877 22.0662 25.989 22.0662ZM30.1732 29.169C30.1732 27.4557 29.8202 26.1858 29.1142 25.3593C28.4083 24.5328 27.5086 24.1196 26.4152 24.1196C24.7794 24.1196 23.6602 24.8858 23.0575 26.4183C22.739 27.2362 22.5797 28.308 22.5797 29.6339C22.5797 31.1922 22.8939 32.3803 23.5224 33.1982C24.1595 34.0075 25.0119 34.4121 26.0794 34.4121C27.7496 34.4121 28.9248 33.6588 29.605 32.1521C29.9838 31.2998 30.1732 30.3054 30.1732 29.169Z" fill="black"/>
<path d="M68.6376 17.1718H77.1738C78.8612 17.1718 80.2215 17.6496 81.2546 18.6053C82.2878 19.5523 82.8043 20.8868 82.8043 22.6086C82.8043 24.0895 82.3437 25.3809 81.4225 26.4829C80.5013 27.5762 79.0851 28.1229 77.1738 28.1229H71.2075V36.1426H68.6376V17.1718ZM80.2086 22.6216C80.2086 21.2268 79.692 20.2798 78.6589 19.7805C78.0907 19.5136 77.3115 19.3801 76.3215 19.3801H71.2075V25.9534H76.3215C77.4751 25.9534 78.4092 25.708 79.1238 25.2173C79.847 24.7265 80.2086 23.8613 80.2086 22.6216Z" fill="black"/>
<path d="M53.1561 8.97369C52.6836 8.49488 51.9125 8.48975 51.4336 8.96224L43.631 16.6618C43.1521 17.1343 43.147 17.9055 43.6195 18.3843C44.092 18.8631 44.8632 18.8682 45.342 18.3957L52.2777 11.5517L59.1218 18.4874C59.5943 18.9662 60.3654 18.9713 60.8442 18.4989C61.3231 18.0264 61.3282 17.2552 60.8557 16.7764L53.1561 8.97369ZM53.4479 18.7371L53.5071 9.8373L51.0712 9.8211L51.012 18.7209L53.4479 18.7371Z" fill="#00FF85"/>
<path fill-rule="evenodd" clip-rule="evenodd" d="M62.664 24.2818V29.3845C62.664 30.6799 62.4644 31.7104 62.0652 32.4762C61.3238 33.8856 59.9226 34.5903 57.8614 34.5903C56.1424 34.5903 54.9204 33.9386 54.1953 32.6351C53.7065 31.7715 53.4621 30.688 53.4621 29.3845V18.2886H50.9937V28.3703C50.9937 30.578 51.291 32.2766 51.8857 33.4661C52.9693 35.6331 55.0263 36.7167 58.0569 36.7167C61.0876 36.7167 63.1487 35.6331 64.2404 33.4661C64.8351 32.2766 65.1324 30.578 65.1324 28.3703V24.2818H62.664Z" fill="#00FF85"/>
<circle cx="81.3" cy="33.8801" r="2.32" fill="#00FF85"/>
<path d="M41.5686 22.0017C42.5501 22.0017 43.5014 22.2341 44.4226 22.699C45.3438 23.1553 46.0455 23.7494 46.5276 24.4812C46.9925 25.1785 47.3024 25.9921 47.4574 26.9219C47.5952 27.559 47.664 28.5749 47.664 29.9697H37.5265C37.5695 31.373 37.901 32.5008 38.5209 33.3531C39.1407 34.1969 40.1007 34.6187 41.4007 34.6187C42.6146 34.6187 43.5832 34.2184 44.3064 33.4177C44.7196 32.9528 45.0123 32.4147 45.1845 31.8035H47.4703C47.4101 32.3114 47.2077 32.8796 46.8634 33.5081C46.5276 34.128 46.1488 34.6359 45.7269 35.032C45.021 35.7207 44.1471 36.1856 43.1054 36.4267C42.5458 36.5644 41.913 36.6333 41.207 36.6333C39.4851 36.6333 38.0258 36.0091 36.8291 34.7608C35.6324 33.5038 35.0341 31.7475 35.0341 29.4918C35.0341 27.2706 35.6367 25.467 36.842 24.0808C38.0474 22.6947 39.6229 22.0017 41.5686 22.0017ZM45.2749 28.1229C45.1802 27.1156 44.9607 26.3107 44.6163 25.708C43.9792 24.5888 42.916 24.0292 41.4265 24.0292C40.359 24.0292 39.4636 24.4166 38.7404 25.1915C38.0172 25.9577 37.6341 26.9349 37.5911 28.1229H45.2749Z" fill="black"/>
</svg>
