<?xml version="1.0" encoding="UTF-8"?>
<svg version="1.1" xmlns="http://www.w3.org/2000/svg" width="320" height="110">
<path d="M0 0 C5.61871316 3.69175211 9.08741088 7.54501173 11 14 C11 15.65 11 17.3 11 19 C6.71 19 2.42 19 -2 19 C-2.5878125 17.081875 -2.5878125 17.081875 -3.1875 15.125 C-4.4487182 11.81949284 -4.4487182 11.81949284 -7.0625 9.5 C-12.57569733 8.56158343 -17.73188888 8.31956666 -23.125 9.9375 C-25.40273116 12.44300428 -25.28651398 13.38207889 -25.3125 16.6875 C-25.23217143 18.12652893 -25.13536774 19.56510191 -25 21 C-23.70927478 21.39889247 -22.41729417 21.79372013 -21.125 22.1875 C-20.22394531 22.46335937 -19.32289062 22.73921875 -18.39453125 23.0234375 C-15.79260775 23.77197706 -13.20165894 24.45516867 -10.57421875 25.1015625 C-9.39931885 25.40090698 -9.39931885 25.40090698 -8.20068359 25.70629883 C-6.64113739 26.10216401 -5.07765723 26.4829243 -3.51025391 26.84643555 C2.11576241 28.30105929 6.07447282 30.67634908 10 35 C12.70026846 39.79079888 13.58611456 43.52959746 13 49 C10.7703798 55.46589858 8.14131077 60.07110259 2 63.25 C-6.48616497 67.29418799 -18.12171643 67.53657041 -27.125 64.8125 C-33.02864478 62.3948169 -37.20961342 58.70272871 -40.25390625 52.98046875 C-41.60932544 49.38257594 -41.76487669 45.82075375 -42 42 C-37.71 42 -33.42 42 -29 42 C-28.608125 43.423125 -28.21625 44.84625 -27.8125 46.3125 C-26.72589682 49.57743501 -26.2814558 50.76906191 -23.5625 53 C-16.09496487 55.91416005 -9.49958606 55.49986202 -2 53 C-1.7506643 51.39884424 -1.52621352 49.79379841 -1.3125 48.1875 C-1.18488281 47.29417969 -1.05726562 46.40085938 -0.92578125 45.48046875 C-0.76205915 43.00851491 -0.76205915 43.00851491 -2.15991211 41.44799805 C-4.52629368 39.5858501 -6.59610708 39.07834422 -9.515625 38.3515625 C-10.60230469 38.06796875 -11.68898438 37.784375 -12.80859375 37.4921875 C-15.0863243 36.91823043 -17.36496271 36.34786312 -19.64453125 35.78125 C-27.20038667 33.8008487 -33.13247231 31.88503752 -37.9375 25.375 C-39.85436439 19.28613665 -40.17445474 13.43925216 -37.375 7.625 C-27.3716591 -3.43132415 -13.82098159 -6.38064892 0 0 Z " fill="#F5F5F5" transform="translate(43,27)"/>
<path d="M0 0 C5.08685198 4.11845784 8.49168281 9.00779466 9.78515625 15.4453125 C10.60294106 24.3711345 10.47617963 32.59657759 5.78515625 40.4453125 C1.73286135 45.20675901 -2.43673914 49.10388379 -8.8515625 49.68359375 C-15.86725581 49.85427003 -20.23607235 49.16794375 -26.21484375 45.4453125 C-26.54484375 45.1153125 -26.87484375 44.7853125 -27.21484375 44.4453125 C-27.54484375 51.7053125 -27.87484375 58.9653125 -28.21484375 66.4453125 C-32.50484375 66.4453125 -36.79484375 66.4453125 -41.21484375 66.4453125 C-41.21484375 43.6753125 -41.21484375 20.9053125 -41.21484375 -2.5546875 C-37.25484375 -2.5546875 -33.29484375 -2.5546875 -29.21484375 -2.5546875 C-28.88484375 -1.2346875 -28.55484375 0.0853125 -28.21484375 1.4453125 C-27.55484375 0.8265625 -26.89484375 0.2078125 -26.21484375 -0.4296875 C-17.90466031 -6.31606743 -8.16917243 -5.68431481 0 0 Z M-25.52734375 9.5703125 C-29.46744275 16.28307375 -29.96049333 22.94781035 -28.21484375 30.4453125 C-26.20184932 34.26306055 -24.14887026 37.53146176 -20.21484375 39.4453125 C-15.92542918 40.02583477 -12.35816209 39.91755269 -8.33984375 38.2578125 C-4.47890603 34.96465974 -2.80935441 31.43920207 -2.21484375 26.4453125 C-1.67833696 19.33659758 -3.14343958 14.07655564 -7.52734375 8.5078125 C-13.31397361 4.06691051 -20.1297208 4.61033465 -25.52734375 9.5703125 Z " fill="#F1F1F1" transform="translate(104.21484375,43.5546875)"/>
<path d="M0 0 C6.74329641 7.14191492 7.2734375 13.73489497 7.2734375 23.4296875 C-4.9365625 23.4296875 -17.1465625 23.4296875 -29.7265625 23.4296875 C-27.06103145 31.14703684 -27.06103145 31.14703684 -21.7265625 35.4296875 C-18.32520648 36.09336672 -15.13650782 36.0366357 -11.7265625 35.4296875 C-8.90231962 33.23945832 -7.31147647 31.59951543 -5.7265625 28.4296875 C-1.7665625 28.4296875 2.1934375 28.4296875 6.2734375 28.4296875 C4.77970089 35.89837053 1.41723131 40.00615596 -4.7265625 44.4296875 C-11.76178489 47.22222006 -19.33843956 47.81135324 -26.6171875 45.51953125 C-33.92940084 42.11519241 -37.97120713 37.89419364 -41.1003418 30.36962891 C-42.14454037 27.13485234 -42.214287 23.91689402 -42.1640625 20.5546875 C-42.15793945 19.85432373 -42.15181641 19.15395996 -42.14550781 18.43237305 C-41.97128272 12.64608964 -40.82748212 8.28095199 -37.7265625 3.4296875 C-37.1696875 2.5221875 -36.6128125 1.6146875 -36.0390625 0.6796875 C-25.18944685 -9.8766953 -11.02367582 -10.0260581 0 0 Z M-24.7265625 4.4296875 C-28.24969011 7.86010123 -28.72887312 9.44124062 -29.7265625 14.4296875 C-21.8065625 14.4296875 -13.8865625 14.4296875 -5.7265625 14.4296875 C-6.72425188 9.44124062 -7.20343489 7.86010123 -10.7265625 4.4296875 C-16.00204138 2.14032874 -19.45108362 2.14032874 -24.7265625 4.4296875 Z " fill="#F4F4F4" transform="translate(295.7265625,46.5703125)"/>
<path d="M0 0 C3.54287205 4.30781033 4 7.25960381 4 13 C0.04 13 -3.92 13 -8 13 C-8.66 10.69 -9.32 8.38 -10 6 C-15.88387102 4.26552555 -20.15316028 3.42739053 -26 6 C-30.18941632 10.49373227 -30.5763607 16.07648212 -31 22 C-30.68132324 26.59030138 -29.89275224 29.8840597 -27 33.5 C-23.19169591 36.35622807 -19.65395215 36.63422381 -15 36 C-11.37896089 33.95332572 -10.2483487 32.61495869 -8.6875 28.75 C-8.460625 27.8425 -8.23375 26.935 -8 26 C-4.04 26 -0.08 26 4 26 C3.49639652 33.30225041 1.67109021 37.79189061 -3.9375 42.75 C-10.84105887 47.82200243 -17.65429033 47.8555035 -26 47 C-33.07370932 45.05449383 -37.22945484 41.47502132 -40.8828125 35.1796875 C-44.68333198 27.76468795 -45.26171267 20.07286539 -43.2421875 11.953125 C-40.40909827 3.69924299 -37.09346553 -0.96803397 -29.28125 -4.98828125 C-20.00504396 -9.1022151 -7.49282186 -6.84440458 0 0 Z " fill="#F4F4F4" transform="translate(244,46)"/>
<path d="M0 0 C10.50292023 4.83807987 18.49682354 12.30020807 26.66992188 20.28027344 C28.76526989 22.31758703 30.88544009 24.32682174 33.0078125 26.3359375 C34.39968761 27.6757859 35.79034834 29.01689716 37.1796875 30.359375 C38.17790527 31.30006836 38.17790527 31.30006836 39.19628906 32.25976562 C39.79924805 32.85208984 40.40220703 33.44441406 41.0234375 34.0546875 C41.56162109 34.57305176 42.09980469 35.09141602 42.65429688 35.62548828 C43.6796875 37.234375 43.6796875 37.234375 43.45019531 39.36987305 C42.6796875 41.234375 42.6796875 41.234375 41.0078125 42.24609375 C40.32203125 42.46910156 39.63625 42.69210938 38.9296875 42.921875 C38.25421875 43.15261719 37.57875 43.38335937 36.8828125 43.62109375 C34.49894249 44.28468877 32.11132517 44.77950572 29.6796875 45.234375 C29.74027344 45.79833984 29.80085938 46.36230469 29.86328125 46.94335938 C30.13973788 49.53992506 30.40974849 52.13712397 30.6796875 54.734375 C30.77507812 55.62125 30.87046875 56.508125 30.96875 57.421875 C31.51405863 62.71915881 31.96749149 67.91000125 31.6796875 73.234375 C31.0196875 73.894375 30.3596875 74.554375 29.6796875 75.234375 C26.14397321 74.69866071 26.14397321 74.69866071 24.6796875 73.234375 C24.45228617 71.82998025 24.2849813 70.41573648 24.14453125 69 C24.05727783 68.12118164 23.97002441 67.24236328 23.88012695 66.33691406 C23.79335693 65.39557617 23.70658691 64.45423828 23.6171875 63.484375 C23.52848389 62.53530273 23.43978027 61.58623047 23.34838867 60.60839844 C22.71937921 53.5089743 22.13647082 46.35935659 22.6796875 39.234375 C24.24554758 37.66851492 26.1048363 37.62342807 28.2421875 37.171875 C29.06847656 36.99527344 29.89476562 36.81867187 30.74609375 36.63671875 C31.70322266 36.43755859 31.70322266 36.43755859 32.6796875 36.234375 C17.62327353 19.55925953 17.62327353 19.55925953 -1.3203125 8.234375 C-1.85398438 9.01039062 -2.38765625 9.78640625 -2.9375 10.5859375 C-3.68257812 11.66617187 -4.42765625 12.74640625 -5.1953125 13.859375 C-5.59588867 14.44041992 -5.99646484 15.02146484 -6.40917969 15.62011719 C-8.56483321 18.73606185 -10.74223043 21.83265334 -12.96875 24.8984375 C-17.49815868 31.13692954 -21.84745896 37.32522427 -25.3203125 44.234375 C-24.0415625 44.193125 -22.7628125 44.151875 -21.4453125 44.109375 C-19.265625 44.0390625 -19.265625 44.0390625 -17.3203125 44.234375 C-14.5077054 47.0469821 -14.86511613 49.86755256 -14.6875 53.6484375 C-14.64593781 54.37807709 -14.60437561 55.10771667 -14.56155396 55.85946655 C-14.43069041 58.19238314 -14.31285719 60.52575308 -14.1953125 62.859375 C-14.10892952 64.44015121 -14.02170051 66.02088143 -13.93359375 67.6015625 C-13.71934217 71.47870105 -13.51677488 75.35629598 -13.3203125 79.234375 C-15.3003125 79.729375 -15.3003125 79.729375 -17.3203125 80.234375 C-20.9334602 70.41752087 -21.47623232 61.62902987 -21.3203125 51.234375 C-22.09117187 51.32976562 -22.86203125 51.42515625 -23.65625 51.5234375 C-24.65914062 51.63429687 -25.66203125 51.74515625 -26.6953125 51.859375 C-27.69304687 51.97539063 -28.69078125 52.09140625 -29.71875 52.2109375 C-31.00652344 52.22253906 -31.00652344 52.22253906 -32.3203125 52.234375 C-32.9803125 51.574375 -33.6403125 50.914375 -34.3203125 50.234375 C-34.0200494 45.41619968 -32.27414152 41.54121849 -30.0078125 37.359375 C-29.66097412 36.71371582 -29.31413574 36.06805664 -28.95678711 35.40283203 C-25.31964368 28.8680898 -20.87551321 23.02669751 -16.30078125 17.12890625 C-12.66647793 12.43747891 -9.36427841 7.54176001 -6.0625 2.61328125 C-3.34125372 -1.10250123 -3.34125372 -1.10250123 0 0 Z " fill="#E8E8E8" transform="translate(152.3203125,15.765625)"/>
<path d="M0 0 C2.69848895 2.24874079 3.31308553 4.64756114 3.9375 8 C4.72289494 18.21013417 -1.01618932 29.05061326 -7 37 C-9.8470235 39.04793562 -11.29859695 39.96882653 -14.8125 40.125 C-22.42223877 37.43920985 -27.43989406 31.02853533 -31 24 C-32.44742686 19.65771943 -32.52108546 15.53778587 -32 11 C-30.19068387 7.71642628 -29.05776149 6.44537326 -25.625 5 C-22.13996133 5 -19.97586522 6.2698458 -17 8 C-16.61328125 7.44570313 -16.2265625 6.89140625 -15.828125 6.3203125 C-15.30734375 5.59585938 -14.7865625 4.87140625 -14.25 4.125 C-13.73953125 3.40570313 -13.2290625 2.68640625 -12.703125 1.9453125 C-8.63304208 -2.70354367 -5.57104538 -2.22841815 0 0 Z " fill="#EDEDED" transform="translate(170,45)"/>
<path d="M0 0 C1.73478558 1.73478558 1.25366416 4.01537323 1.3125 6.375 C1.34988281 7.35210937 1.38726562 8.32921875 1.42578125 9.3359375 C1 12 1 12 -0.80078125 13.8515625 C-4.20406062 15.62876345 -6.3788916 15.0346024 -10 14 C-12.5 11.875 -12.5 11.875 -14 9 C-13.9387431 5.44709956 -13.74607699 3.06582427 -11.6875 0.125 C-7.41202605 -2.72531597 -4.66553739 -1.86621496 0 0 Z " fill="#04F481" transform="translate(319,76)"/>
<path d="M0 0 C0.70125 0.2475 1.4025 0.495 2.125 0.75 C2.125 1.08 2.125 1.41 2.125 1.75 C1.073125 1.976875 0.02125 2.20375 -1.0625 2.4375 C-5.05237846 3.57052837 -7.21442076 5.54165445 -9.875 8.75 C-10.205 9.74 -10.535 10.73 -10.875 11.75 C-11.535 11.42 -12.195 11.09 -12.875 10.75 C-10.11479006 5.22958012 -7.06759485 -0.61457347 0 0 Z " fill="#C8C8C8" transform="translate(165.875,43.25)"/>
<path d="M0 0 C0.928125 0.20625 1.85625 0.4125 2.8125 0.625 C2.8125 0.955 2.8125 1.285 2.8125 1.625 C1.74 1.91375 0.6675 2.2025 -0.4375 2.5 C-3.28150364 3.35320109 -5.62258983 4.1886503 -8.1875 5.625 C-6.37307853 1.43787353 -4.89236161 -0.57557195 0 0 Z " fill="#C9C9C9" transform="translate(147.1875,50.375)"/>
<path d="M0 0 C0.66 0.33 1.32 0.66 2 1 C-0.64 3.64 -3.28 6.28 -6 9 C-6.66 8.67 -7.32 8.34 -8 8 C-3.375 2.25 -3.375 2.25 0 0 Z " fill="#D5D5D5" transform="translate(265,43)"/>
<path d="M0 0 C0.66 0.33 1.32 0.66 2 1 C-0.64 3.64 -3.28 6.28 -6 9 C-6 6 -6 6 -3.5625 3.375 C-2.716875 2.59125 -1.87125 1.8075 -1 1 C-0.67 0.67 -0.34 0.34 0 0 Z " fill="#DFDFDF" transform="translate(211,43)"/>
<path d="M0 0 C-1.15173355 2.46800047 -2.04783565 4.04783565 -4 6 C-4.69748583 7.31747324 -5.36959957 8.64914193 -6 10 C-5.38909774 3.52443609 -5.38909774 3.52443609 -3.5625 1.0625 C-2 0 -2 0 0 0 Z " fill="#24C972" transform="translate(311,75)"/>
<path d="M0 0 C1.33855056 0.78281305 2.67073644 1.57651877 4 2.375 C5.11375 3.03628906 5.11375 3.03628906 6.25 3.7109375 C6.8275 4.13632813 7.405 4.56171875 8 5 C8 5.66 8 6.32 8 7 C6.68 6.67 5.36 6.34 4 6 C4 5.34 4 4.68 4 4 C2.68 3.34 1.36 2.68 0 2 C0 1.34 0 0.68 0 0 Z " fill="#F8F8F8" transform="translate(146,66)"/>
<path d="M0 0 C0.66 0 1.32 0 2 0 C2 0.66 2 1.32 2 2 C3.32 2.66 4.64 3.32 6 4 C4.125 5.0625 4.125 5.0625 2 6 C1.34 5.67 0.68 5.34 0 5 C0 3.35 0 1.7 0 0 Z " fill="#E4E4E4" transform="translate(143,59)"/>
<path d="" fill="#000000" transform="translate(0,0)"/>
<path d="" fill="#000000" transform="translate(0,0)"/>
<path d="" fill="#000000" transform="translate(0,0)"/>
<path d="" fill="#000000" transform="translate(0,0)"/>
<path d="" fill="#000000" transform="translate(0,0)"/>
<path d="" fill="#000000" transform="translate(0,0)"/>
<path d="" fill="#000000" transform="translate(0,0)"/>
<path d="" fill="#000000" transform="translate(0,0)"/>
<path d="" fill="#000000" transform="translate(0,0)"/>
<path d="" fill="#000000" transform="translate(0,0)"/>
<path d="" fill="#000000" transform="translate(0,0)"/>
<path d="" fill="#000000" transform="translate(0,0)"/>
<path d="" fill="#000000" transform="translate(0,0)"/>
<path d="" fill="#000000" transform="translate(0,0)"/>
<path d="" fill="#000000" transform="translate(0,0)"/>
<path d="" fill="#000000" transform="translate(0,0)"/>
<path d="" fill="#000000" transform="translate(0,0)"/>
<path d="" fill="#000000" transform="translate(0,0)"/>
<path d="" fill="#000000" transform="translate(0,0)"/>
<path d="" fill="#000000" transform="translate(0,0)"/>
</svg>
